<svg xmlns="http://www.w3.org/2000/svg" width="29" height="32" fill="none" viewBox="0 0 29 32"><path fill="#C854FF" d="M7.30071 3.12771C7.30071 1.5361 8.59096 0.24585 10.1826 0.24585H25.3604C27.0581 0.24585 28.4343 1.62212 28.4343 3.31983V5.63734C28.4343 5.88061 28.3662 6.11902 28.2375 6.3255L27.4864 7.53116C27.2736 7.87271 27.5192 8.31506 27.9216 8.31506V8.31506C28.2048 8.31506 28.4343 8.54463 28.4343 8.82782V11.1969C28.4343 12.7885 27.1441 14.0788 25.5525 14.0788H25.1138C24.0523 14.0788 23.066 14.6264 22.5047 15.5273L18.9138 21.291C17.6382 23.3386 19.1105 25.9905 21.5229 25.9905H25.5525C27.1441 25.9905 28.4343 27.2807 28.4343 28.8723V28.8723C28.4343 30.4639 27.1441 31.7542 25.5525 31.7542H2.88186C1.29025 31.7542 0 30.4639 0 28.8723V28.0506C0 26.9128 0.922362 25.9905 2.06015 25.9905H9.22777C9.24593 25.9905 9.25271 25.9667 9.23728 25.9571V25.9571C9.22881 25.9518 9.22621 25.9407 9.23146 25.9323L9.89405 24.8638C10.4209 24.0143 9.80992 22.9165 8.81029 22.9165H2.88186C1.29025 22.9165 0 21.6262 0 20.0346V20.0346C0 18.443 1.29025 17.1528 2.88186 17.1528H13.8207C14.3526 17.1528 14.8466 16.8778 15.1269 16.4258V16.4258C15.7619 15.4019 15.0255 14.0788 13.8207 14.0788H2.88186C1.29025 14.0788 0 12.7885 0 11.1969V11.1969C0 9.60531 1.29025 8.31506 2.88186 8.31506H19.5153C19.9142 8.31506 20.2847 8.10884 20.495 7.76985V7.76985C20.9712 7.00193 20.4189 6.00957 19.5153 6.00957H10.1826C8.59096 6.00957 7.30071 4.71932 7.30071 3.12771V3.12771Z" clipRule="evenodd" fillRule="evenodd"/></svg>